<?xml version="1.0" standalone="no"?><!DOCTYPE svg PUBLIC "-//W3C//DTD SVG 1.1//EN"
        "http://www.w3.org/Graphics/SVG/1.1/DTD/svg11.dtd">
<svg t="1569823195019" class="icon" viewBox="0 0 1024 1024" version="1.1" xmlns="http://www.w3.org/2000/svg" p-id="1724"
     xmlns:xlink="http://www.w3.org/1999/xlink" width="200" height="200">
    <defs>
        <style type="text/css"></style>
    </defs>
    <path d="M864 238.62V623.66c0 43.395-25.136 95.516-58.84 121.104L577.54 917.578c-36.998 28.09-94.005 28.147-131.078 0L218.84 744.765C185.281 719.288 160 666.913 160 623.661V238.62c0-46.82 32.167-94.217 75.162-108.404 4.161-1.64 10.892-4.07 20.044-7.037 16.402-5.317 35.332-10.604 56.592-15.52C372.188 93.695 439.457 85.333 512 85.333c72.543 0 139.812 8.362 200.202 22.326 21.26 4.916 40.19 10.203 56.592 15.52 9.298 3.015 16.097 5.475 20.241 7.115C831.737 144.913 864 192.097 864 238.62z m-640 0V623.66c0 23.494 16.132 56.915 33.539 70.13L485.16 866.605c14.175 10.762 39.536 10.736 53.678 0L766.461 693.79c17.545-13.32 33.539-46.484 33.539-70.13V238.62c0-19.835-15.628-42.504-31.995-47.877l-2.051-0.752c-0.492-0.2-1.781-0.697-3.84-1.452a371.056 371.056 0 0 0-13.057-4.48c-14.69-4.761-31.85-9.554-51.273-14.045-55.852-12.915-118.327-20.68-185.784-20.68s-129.932 7.765-185.784 20.68c-19.424 4.491-36.584 9.284-51.273 14.046a371.056 371.056 0 0 0-13.056 4.48c-2.06 0.754-3.349 1.252-3.84 1.451a32 32 0 0 1-2.48 0.89C239.485 195.91 224 218.502 224 238.62z m234.918 292.155l190.438-190.72c12.487-12.505 32.749-12.52 45.255-0.032 12.506 12.487 12.52 32.748 0.033 45.254l-213.02 213.334c-12.475 12.494-32.714 12.522-45.224 0.063L329.419 492.129c-12.522-12.471-12.564-32.732-0.093-45.254 12.472-12.523 32.733-12.564 45.255-0.093l84.337 83.993z"
          fill="#000000" p-id="1725"></path>
</svg>